<svg height="1502" width="720" xmlns="http://www.w3.org/2000/svg">
<rect height="1502" fill="#555" width="720"></rect>
<text fill="#7f7" font-family="Courier New" font-size="12" xml:space="preserve">
<tspan x="10" y="26">6 megabytes installed</tspan>
<tspan x="10" y="42"></tspan>
<tspan x="10" y="58">node_modules</tspan>
<tspan x="10" y="74">└─┬ gulp-htmlmin@3.0.0 </tspan>
<tspan x="10" y="90">  ├── bufferstreams@1.1.1 </tspan>
<tspan x="10" y="106">  ├─┬ gulp-util@3.0.8 </tspan>
<tspan x="10" y="122">  │ ├── array-differ@1.0.0 </tspan>
<tspan x="10" y="138">  │ ├── array-uniq@1.0.3 </tspan>
<tspan x="10" y="154">  │ ├── beeper@1.1.1 </tspan>
<tspan x="10" y="170">  │ ├─┬ chalk@1.1.3 </tspan>
<tspan x="10" y="186">  │ │ ├── ansi-styles@2.2.1 </tspan>
<tspan x="10" y="202">  │ │ ├── escape-string-regexp@1.0.5 </tspan>
<tspan x="10" y="218">  │ │ ├─┬ has-ansi@2.0.0 </tspan>
<tspan x="10" y="234">  │ │ │ └── ansi-regex@2.1.1 </tspan>
<tspan x="10" y="250">  │ │ ├── strip-ansi@3.0.1 </tspan>
<tspan x="10" y="266">  │ │ └── supports-color@2.0.0 </tspan>
<tspan x="10" y="282">  │ ├── dateformat@2.0.0 </tspan>
<tspan x="10" y="298">  │ ├─┬ fancy-log@1.3.0 </tspan>
<tspan x="10" y="314">  │ │ └── time-stamp@1.0.1 </tspan>
<tspan x="10" y="330">  │ ├─┬ gulplog@1.0.0 </tspan>
<tspan x="10" y="346">  │ │ └── glogg@1.0.0 </tspan>
<tspan x="10" y="362">  │ ├─┬ has-gulplog@0.1.0 </tspan>
<tspan x="10" y="378">  │ │ └── sparkles@1.0.0 </tspan>
<tspan x="10" y="394">  │ ├── lodash._reescape@3.0.0 </tspan>
<tspan x="10" y="410">  │ ├── lodash._reevaluate@3.0.0 </tspan>
<tspan x="10" y="426">  │ ├── lodash._reinterpolate@3.0.0 </tspan>
<tspan x="10" y="442">  │ ├─┬ lodash.template@3.6.2 </tspan>
<tspan x="10" y="458">  │ │ ├── lodash._basecopy@3.0.1 </tspan>
<tspan x="10" y="474">  │ │ ├── lodash._basetostring@3.0.1 </tspan>
<tspan x="10" y="490">  │ │ ├── lodash._basevalues@3.0.0 </tspan>
<tspan x="10" y="506">  │ │ ├── lodash._isiterateecall@3.0.9 </tspan>
<tspan x="10" y="522">  │ │ ├─┬ lodash.escape@3.2.0 </tspan>
<tspan x="10" y="538">  │ │ │ └── lodash._root@3.0.1 </tspan>
<tspan x="10" y="554">  │ │ ├─┬ lodash.keys@3.1.2 </tspan>
<tspan x="10" y="570">  │ │ │ ├── lodash._getnative@3.9.1 </tspan>
<tspan x="10" y="586">  │ │ │ ├── lodash.isarguments@3.1.0 </tspan>
<tspan x="10" y="602">  │ │ │ └── lodash.isarray@3.0.4 </tspan>
<tspan x="10" y="618">  │ │ ├── lodash.restparam@3.6.1 </tspan>
<tspan x="10" y="634">  │ │ └── lodash.templatesettings@3.1.1 </tspan>
<tspan x="10" y="650">  │ ├── minimist@1.2.0 </tspan>
<tspan x="10" y="666">  │ ├─┬ multipipe@0.1.2 </tspan>
<tspan x="10" y="682">  │ │ └─┬ duplexer2@0.0.2 </tspan>
<tspan x="10" y="698">  │ │   └─┬ readable-stream@1.1.14 </tspan>
<tspan x="10" y="714">  │ │     ├── isarray@0.0.1 </tspan>
<tspan x="10" y="730">  │ │     └── string_decoder@0.10.31 </tspan>
<tspan x="10" y="746">  │ ├── object-assign@3.0.0 </tspan>
<tspan x="10" y="762">  │ ├── replace-ext@0.0.1 </tspan>
<tspan x="10" y="778">  │ ├─┬ through2@2.0.3 </tspan>
<tspan x="10" y="794">  │ │ └── xtend@4.0.1 </tspan>
<tspan x="10" y="810">  │ └─┬ vinyl@0.5.3 </tspan>
<tspan x="10" y="826">  │   ├── clone@1.0.2 </tspan>
<tspan x="10" y="842">  │   └── clone-stats@0.0.1 </tspan>
<tspan x="10" y="858">  ├─┬ html-minifier@3.4.3 </tspan>
<tspan x="10" y="874">  │ ├─┬ camel-case@3.0.0 </tspan>
<tspan x="10" y="890">  │ │ ├─┬ no-case@2.3.1 </tspan>
<tspan x="10" y="906">  │ │ │ └── lower-case@1.1.4 </tspan>
<tspan x="10" y="922">  │ │ └── upper-case@1.1.3 </tspan>
<tspan x="10" y="938">  │ ├─┬ clean-css@4.0.12 </tspan>
<tspan x="10" y="954">  │ │ └── source-map@0.5.6 </tspan>
<tspan x="10" y="970">  │ ├─┬ commander@2.9.0 </tspan>
<tspan x="10" y="986">  │ │ └── graceful-readlink@1.0.1 </tspan>
<tspan x="10" y="1002">  │ ├── he@1.1.1 </tspan>
<tspan x="10" y="1018">  │ ├─┬ ncname@1.0.0 </tspan>
<tspan x="10" y="1034">  │ │ └── xml-char-classes@1.0.0 </tspan>
<tspan x="10" y="1050">  │ ├── param-case@2.1.1 </tspan>
<tspan x="10" y="1066">  │ ├── relateurl@0.2.7 </tspan>
<tspan x="10" y="1082">  │ └─┬ uglify-js@2.8.22 </tspan>
<tspan x="10" y="1098">  │   ├── uglify-to-browserify@1.0.2 </tspan>
<tspan x="10" y="1114">  │   └─┬ yargs@3.10.0 </tspan>
<tspan x="10" y="1130">  │     ├── camelcase@1.2.1 </tspan>
<tspan x="10" y="1146">  │     ├─┬ cliui@2.1.0 </tspan>
<tspan x="10" y="1162">  │     │ ├─┬ center-align@0.1.3 </tspan>
<tspan x="10" y="1178">  │     │ │ ├─┬ align-text@0.1.4 </tspan>
<tspan x="10" y="1194">  │     │ │ │ ├─┬ kind-of@3.2.0 </tspan>
<tspan x="10" y="1210">  │     │ │ │ │ └── is-buffer@1.1.5 </tspan>
<tspan x="10" y="1226">  │     │ │ │ ├── longest@1.0.1 </tspan>
<tspan x="10" y="1242">  │     │ │ │ └── repeat-string@1.6.1 </tspan>
<tspan x="10" y="1258">  │     │ │ └── lazy-cache@1.0.4 </tspan>
<tspan x="10" y="1274">  │     │ ├── right-align@0.1.3 </tspan>
<tspan x="10" y="1290">  │     │ └── wordwrap@0.0.2 </tspan>
<tspan x="10" y="1306">  │     ├── decamelize@1.2.0 </tspan>
<tspan x="10" y="1322">  │     └── window-size@0.1.0 </tspan>
<tspan x="10" y="1338">  ├── object-assign@4.1.1 </tspan>
<tspan x="10" y="1354">  ├─┬ readable-stream@2.2.9 </tspan>
<tspan x="10" y="1370">  │ ├── buffer-shims@1.0.0 </tspan>
<tspan x="10" y="1386">  │ ├── core-util-is@1.0.2 </tspan>
<tspan x="10" y="1402">  │ ├── inherits@2.0.3 </tspan>
<tspan x="10" y="1418">  │ ├── isarray@1.0.0 </tspan>
<tspan x="10" y="1434">  │ ├── process-nextick-args@1.0.7 </tspan>
<tspan x="10" y="1450">  │ ├── string_decoder@1.0.0 </tspan>
<tspan x="10" y="1466">  │ └── util-deprecate@1.0.2 </tspan>
<tspan x="10" y="1482">  └── tryit@1.0.3</tspan>
</text>
</svg>
